<svg width="99" height="20" viewBox="0 0 99 20" fill="none" xmlns="http://www.w3.org/2000/svg">
<path d="M0 4C0 1.79086 1.79086 0 4 0H95C97.2091 0 99 1.79086 99 4V16C99 18.2091 97.2091 20 95 20H4C1.79086 20 0 18.2091 0 16V4Z" fill="#25E197"/>
<path d="M12.4707 12.5645L14.627 7.66016H15.9805V14H14.8965V9.38867L12.8457 14H12.0957L10.0039 9.28906V14H8.91992V7.66016H10.3262L12.4707 12.5645ZM18.9102 9.8457H20.5566C21.2754 9.85352 21.8438 10.041 22.2617 10.4082C22.6797 10.7754 22.8887 11.2734 22.8887 11.9023C22.8887 12.5352 22.6738 13.043 22.2441 13.4258C21.8145 13.8086 21.2363 14 20.5098 14H17.8262V7.66016H18.9102V9.8457ZM25.1504 14H24.0605V7.66016H25.1504V14ZM18.9102 10.7305V13.1152H20.5215C20.9277 13.1152 21.2422 13.0117 21.4648 12.8047C21.6875 12.5938 21.7988 12.3066 21.7988 11.9434C21.7988 11.5918 21.6895 11.3047 21.4707 11.082C21.2559 10.8555 20.9531 10.7383 20.5625 10.7305H18.9102ZM29.7324 10.7715C29.7324 10.1504 29.8535 9.5918 30.0957 9.0957C30.3418 8.59961 30.6816 8.2168 31.1152 7.94727C31.5527 7.67773 32.0508 7.54297 32.6094 7.54297C33.4727 7.54297 34.1699 7.8418 34.7012 8.43945C35.2363 9.03711 35.5039 9.83203 35.5039 10.8242V10.9004C35.5039 11.5176 35.3848 12.0723 35.1465 12.5645C34.9121 13.0527 34.5742 13.4336 34.1328 13.707C33.6953 13.9805 33.1914 14.1172 32.6211 14.1172C31.7617 14.1172 31.0645 13.8184 30.5293 13.2207C29.998 12.623 29.7324 11.832 29.7324 10.8477V10.7715ZM30.8223 10.9004C30.8223 11.6035 30.9844 12.168 31.3086 12.5938C31.6367 13.0195 32.0742 13.2324 32.6211 13.2324C33.1719 13.2324 33.6094 13.0176 33.9336 12.5879C34.2578 12.1543 34.4199 11.5488 34.4199 10.7715C34.4199 10.0762 34.2539 9.51367 33.9219 9.08398C33.5938 8.65039 33.1562 8.43359 32.6094 8.43359C32.0742 8.43359 31.6426 8.64648 31.3145 9.07227C30.9863 9.49805 30.8223 10.1074 30.8223 10.9004ZM41.4453 8.53906H39.3184V14H38.2344V8.53906H36.1484V7.66016H41.4453V8.53906ZM44.4746 11.2988H43.6836V14H42.5938V7.66016H43.6836V10.3438H44.3926L46.5254 7.66016H47.8379L45.3301 10.707L48.0488 14H46.6719L44.4746 11.2988ZM54.3359 10.9004C54.3359 11.8652 54.1152 12.6426 53.6738 13.2324C53.2324 13.8223 52.6348 14.1172 51.8809 14.1172C51.1113 14.1172 50.5059 13.873 50.0645 13.3848V16.4375H48.9805V7.66016H49.9707L50.0234 8.36328C50.4648 7.81641 51.0781 7.54297 51.8633 7.54297C52.625 7.54297 53.2266 7.83008 53.668 8.4043C54.1133 8.97852 54.3359 9.77734 54.3359 10.8008V10.9004ZM53.252 10.7773C53.252 10.0625 53.0996 9.49805 52.7949 9.08398C52.4902 8.66992 52.0723 8.46289 51.541 8.46289C50.8848 8.46289 50.3926 8.75391 50.0645 9.33594V12.3652C50.3887 12.9434 50.8848 13.2324 51.5527 13.2324C52.0723 13.2324 52.4844 13.0273 52.7891 12.6172C53.0977 12.2031 53.252 11.5898 53.252 10.7773ZM56.9023 9.8457H58.5488C59.2676 9.85352 59.8359 10.041 60.2539 10.4082C60.6719 10.7754 60.8809 11.2734 60.8809 11.9023C60.8809 12.5352 60.666 13.043 60.2363 13.4258C59.8066 13.8086 59.2285 14 58.502 14H55.8184V7.66016H56.9023V9.8457ZM63.1426 14H62.0527V7.66016H63.1426V14ZM56.9023 10.7305V13.1152H58.5137C58.9199 13.1152 59.2344 13.0117 59.457 12.8047C59.6797 12.5938 59.791 12.3066 59.791 11.9434C59.791 11.5918 59.6816 11.3047 59.4629 11.082C59.248 10.8555 58.9453 10.7383 58.5547 10.7305H56.9023ZM70.2324 7.66016V14H69.1426V8.55664H66.9863L66.8574 10.9297C66.7871 12.0195 66.6035 12.7988 66.3066 13.2676C66.0137 13.7363 65.5469 13.9805 64.9062 14H64.4727V13.0449L64.7832 13.0215C65.1348 12.9824 65.3867 12.7793 65.5391 12.4121C65.6914 12.0449 65.7891 11.3652 65.832 10.373L65.9492 7.66016H70.2324ZM76.0742 7.66016H77.1582V14H76.0742V9.37695L73.1504 14H72.0664V7.66016H73.1504V12.2891L76.0742 7.66016ZM81.4414 13.2324C81.8281 13.2324 82.166 13.1152 82.4551 12.8809C82.7441 12.6465 82.9043 12.3535 82.9355 12.002H83.9609C83.9414 12.3652 83.8164 12.7109 83.5859 13.0391C83.3555 13.3672 83.0469 13.6289 82.6602 13.8242C82.2773 14.0195 81.8711 14.1172 81.4414 14.1172C80.5781 14.1172 79.8906 13.8301 79.3789 13.2559C78.8711 12.6777 78.6172 11.8887 78.6172 10.8887V10.707C78.6172 10.0898 78.7305 9.54102 78.957 9.06055C79.1836 8.58008 79.5078 8.20703 79.9297 7.94141C80.3555 7.67578 80.8574 7.54297 81.4355 7.54297C82.1465 7.54297 82.7363 7.75586 83.2051 8.18164C83.6777 8.60742 83.9297 9.16016 83.9609 9.83984H82.9355C82.9043 9.42969 82.748 9.09375 82.4668 8.83203C82.1895 8.56641 81.8457 8.43359 81.4355 8.43359C80.8848 8.43359 80.457 8.63281 80.1523 9.03125C79.8516 9.42578 79.7012 9.99805 79.7012 10.748V10.9531C79.7012 11.6836 79.8516 12.2461 80.1523 12.6406C80.4531 13.0352 80.8828 13.2324 81.4414 13.2324ZM86.3633 9.8457H88.0098C88.7285 9.85352 89.2969 10.041 89.7148 10.4082C90.1328 10.7754 90.3418 11.2734 90.3418 11.9023C90.3418 12.5352 90.127 13.043 89.6973 13.4258C89.2676 13.8086 88.6895 14 87.9629 14H85.2793V7.66016H86.3633V9.8457ZM86.3633 10.7305V13.1152H87.9746C88.3809 13.1152 88.6953 13.0117 88.918 12.8047C89.1406 12.5938 89.252 12.3066 89.252 11.9434C89.252 11.5918 89.1426 11.3047 88.9238 11.082C88.709 10.8555 88.4062 10.7383 88.0156 10.7305H86.3633Z" fill="black"/>
</svg>
